# xmcd
#
# Track frame offsets:
#	150
#	17664
#	52587
#	67617
#	90348
#	105417
#	126306
#	153195
#	185685
#	207825
#
# Disc length: 3238 seconds
#
# Revision: 0
# Processed by: cddbd v1.5PL3 Copyright (c) Steve Scherf et al.
# Submitted via: dBpowerAMP V4.0
#
DISCID=6d0ca40a
DTITLE=聖經-舊約 - Disc 32
DYEAR=1900
DGENRE=
TTITLE0=32-01-以斯拉記第1章
TTITLE1=32-02-以斯拉記第2章
TTITLE2=32-03-以斯拉記第3章
TTITLE3=32-04-以斯拉記第4章
TTITLE4=32-05-以斯拉記第5章
TTITLE5=32-06-以斯拉記第6章
TTITLE6=32-07-以斯拉記第7章
TTITLE7=32-08-以斯拉記第8章
TTITLE8=32-09-以斯拉記第9章
TTITLE9=32-10-以斯拉記第10章
EXTD=
EXTT0=
EXTT1=
EXTT2=
EXTT3=
EXTT4=
EXTT5=
EXTT6=
EXTT7=
EXTT8=
EXTT9=
PLAYORDER=
